<?xml version="1.0" encoding="UTF-8"?>
<svg id="Layer_1" data-name="Layer 1" xmlns="http://www.w3.org/2000/svg" xmlns:xlink="http://www.w3.org/1999/xlink" viewBox="0 0 500 500">
  <defs>
    <style>
      .cls-1 {
        fill: #d8423f;
      }

      .cls-1, .cls-2, .cls-3 {
        stroke-width: 0px;
      }

      .cls-4 {
        clip-path: url(#clippath-2);
      }

      .cls-3 {
        fill: none;
      }

      .cls-5 {
        clip-path: url(#clippath-1);
      }

      .cls-6 {
        clip-path: url(#clippath);
      }
    </style>
    <clipPath id="clippath">
      <rect class="cls-3" x="188.2" y="185.75" width="180.95" height="306.91"/>
    </clipPath>
    <clipPath id="clippath-1">
      <rect class="cls-3" x="64.28" y="172.17" width="33.61" height="45.15"/>
    </clipPath>
    <clipPath id="clippath-2">
      <rect class="cls-3" x="111.14" y="34.34" width="45.15" height="38.02"/>
    </clipPath>
  </defs>
  <g class="cls-6">
    <path class="cls-2" d="M191.6,277.42c0-11.2,1.7-22.07,5.43-32.93,3.73-10.86,8.83-20.71,15.96-29.2,7.13-8.83,15.62-15.62,26.14-21.05,10.52-5.09,22.07-7.81,35.65-7.81h92.68v216.6c0,20.37-4.07,37.01-12.56,50.25-8.49,12.9-19.69,22.75-33.95,29.2-14.26,6.45-30.22,9.51-47.53,9.51s-31.57-2.38-44.13-7.47c-12.22-5.09-23.43-12.56-33.95-23.09v-58.39h1.02c10.52,13.92,20.71,25.46,30.55,34.63,9.85,8.83,20.37,15.62,30.89,19.69,10.86,4.07,23.09,6.45,36.33,6.45,18.33,0,32.93-5.77,43.46-16.97,10.52-11.2,15.96-27.5,15.96-48.89v-33.61c-6.45,8.49-15.28,15.62-25.8,21.39-10.52,5.77-22.07,8.49-34.63,8.49-15.28,0-28.86-3.06-41.42-9.51s-23.09-14.94-32.25-25.8c-8.83-10.86-15.62-23.43-20.71-37.34-4.75-14.26-7.13-28.86-7.13-44.13h0ZM234.37,245.51c0,16.97,2.38,32.93,7.47,47.87,5.09,14.94,11.54,28.52,19.35,40.06,8.15,11.88,16.97,21.05,26.48,27.5,9.51,6.45,19.35,9.85,28.86,9.85s16.64-2.38,22.07-6.79c5.43-4.75,9.17-10.52,11.54-17.65,2.38-7.13,3.39-14.6,3.39-22.07,0-9.51-.68-19.69-2.38-31.23-1.7-11.2-4.41-22.41-8.15-33.61-3.73-11.2-8.49-21.73-14.6-31.23-6.11-9.51-13.58-16.97-22.41-22.75s-19.35-8.49-31.23-8.49-21.39,4.41-29.2,13.24c-7.47,9.51-11.2,21.05-11.2,35.31Z"/>
  </g>
  <path class="cls-1" d="M293.45,84.92c-9.85,0-21.05-4.75-25.12-13.92-3.73-7.81,2.72-15.96,13.58-15.96,10.18,0,21.73,5.77,25.46,15.62,3.06,7.81-3.39,13.92-13.92,14.26Z"/>
  <g class="cls-5">
    <path class="cls-1" d="M88.73,178.96c6.11,7.81,5.09,20.03.34,28.86-5.09,9.17-13.58,11.88-19.35,5.43-6.79-7.81-6.79-20.71-2.04-29.88,5.77-9.51,15.96-11.54,21.05-4.41Z"/>
  </g>
  <path class="cls-1" d="M275.11,161.99c-11.88,3.06-23.09,7.13-34.29,12.22l-4.75,2.04h0c-6.79,3.06-13.58,6.45-20.03,10.52-17.99,11.54-34.29,24.44-48.89,39.72-6.21,6.51-9.33,7.6-14.07,2.16-1.75-2.01-2.65-4.61-2.43-7.27.34-4.07,2.18-7.48,4.96-10.51,31.57-32.25,67.56-53.98,111.02-66.54,5.77-1.36,11.54-1.02,15.28,4.41,4.07,7.13,1.36,11.2-6.79,13.24Z"/>
  <g class="cls-4">
    <path class="cls-1" d="M153.57,41.81c4.75,7.47-.34,18.33-10.18,24.44-9.85,5.77-21.73,5.09-26.14-2.72-5.43-9.17.68-20.71,9.17-25.8,8.49-5.09,21.73-5.09,27.16,4.07h0Z"/>
  </g>
  <path class="cls-1" d="M279.19,95.79c-2.04,9.17-3.73,18.33-5.43,28.86-56.7,11.88-103.89,40.4-140.89,85.21-6.11-2.72-12.56-5.77-19.35-7.47h-.68c-.68,0-1.02-.34-1.7-.34-2.04-.34-4.07-.68-6.11-.68.68-4.75,2.72-6.79,4.75-7.81,27.16-11.2,43.8-44.13,44.81-72.65.34-9.85,0-19.01-.34-28.52.04-2.01.08-3.71.68-7.13,5.77,3.39,11.2,6.79,16.97,9.85,12.22,7.13,26.14,11.88,40.06,14.26,20.37,2.38,40.74.34,57.71-11.88,2.38-2.04,4.75-4.07,9.51-1.7Z"/>
</svg>