<svg version="1.2" xmlns="http://www.w3.org/2000/svg" viewBox="0 0 265 97" width="265" height="97"><defs><clipPath clipPathUnits="userSpaceOnUse" id="cp1"><path d="m26 32h29v49.66h-29z"/></clipPath><clipPath clipPathUnits="userSpaceOnUse" id="cp2"><path d="m103.29 32h42.33v34h-42.33z"/></clipPath><clipPath clipPathUnits="userSpaceOnUse" id="cp3"><path d="m5.57 30h4.72v7.66h-4.72z"/></clipPath><clipPath clipPathUnits="userSpaceOnUse" id="cp4"><path d="m13.22 7.55h7.32v5.89h-7.32z"/></clipPath><clipPath clipPathUnits="userSpaceOnUse" id="cp5"><path d="m209 30h33.16v35h-33.16z"/></clipPath></defs><style>.a{fill:#d8423f}</style><g clip-path="url(#cp1)"><path  d="m26.2 46.9q0-2.7 0.9-5.3 0.8-2.6 2.5-4.8 1.7-2.1 4.2-3.4 2.6-1.2 5.8-1.2h15v35.1q0 4.9-2 8.1-2.1 3.2-5.6 4.7-3.4 1.6-7.7 1.5-4.1 0-7.1-1.1-2.9-1.3-5.5-3.8v-9.4h0.2q2.5 3.4 4.9 5.6 2.4 2.1 5 3.2c1.8 0.6 3.8 1 5.9 1q4.5 0 7.1-2.8 2.5-2.7 2.5-7.9v-5.5q-1.6 2.1-4.1 3.5-2.6 1.4-5.7 1.4-3.6 0-6.6-1.5-3.1-1.6-5.2-4.2-2.2-2.7-3.4-6.1-1.1-3.3-1.1-7.1zm6.9-5.1q0 4.1 1.2 7.7 1.2 3.7 3.1 6.6 2 2.8 4.3 4.4 2.4 1.6 4.7 1.6 2.3 0 3.6-1.1 1.3-1.1 1.8-2.8 0.6-1.8 0.6-3.6 0-2.3-0.4-5.1-0.4-2.7-1.3-5.4-0.9-2.8-2.4-5.1-1.4-2.3-3.6-3.6-2.1-1.4-5-1.4-2.9 0-4.7 2.1-1.9 2.2-1.9 5.7z"/></g><path  d="m59.2 17.1h10.2v0.1q-2.8 2.9-4.6 6.5-1.7 3.5-2.6 7.4-0.8 3.9-0.8 7.8c0 2.7 0.2 5.2 0.5 8q0.5 4.2 2 8.9 1.5 4.7 4.3 9.9v0.2h-9z"/><path  d="m69.5 52.1q0-4.9 1.5-8.6 1.6-3.7 4.1-6.3 2.5-2.5 5.5-3.8 3-1.2 5.9-1.2 3.5 0 6.2 1.5 2.7 1.5 4.2 4.5 1.6 3.1 1.6 7.7c0 3.1-0.6 5.8-1.6 8.3q-1.6 3.7-4.1 6.3-2.6 2.6-5.6 4-2.9 1.4-5.8 1.4c-2.3 0-4.4-0.6-6.2-1.7q-2.7-1.7-4.2-4.8-1.5-3.1-1.5-7.3zm7.3 0.1q0 5.5 1.5 8.7 1.5 3.2 4.2 3.2 4 0 6.4-4.5 2.3-4.5 2.3-13.4 0-6.2-1.5-9.3-1.5-3-4.2-3.1c-1.8 0-3.3 0.8-4.6 2.3q-2 2.2-3 6.3-1.1 4.1-1.1 9.8z"/><g clip-path="url(#cp2)"><path  d="m110 65.9q-2.3 0-3.6-1.1-1.3-1.1-1.9-3-0.6-1.9-0.7-4.3-0.1-2.4-0.1-5 0-2.7 0-5.2v-15.1h8.8v0.2q-2.1 2.3-3.4 4.9-1.4 2.6-2 5.1-0.7 2.5-1 4.4-0.2 2-0.2 3.1 0 4.2 1.7 6 1.6 2 3.8 2 1.8 0 3.8-1.2 1.9-1.1 3.6-3.2 1.7-2.1 2.7-5.1 1-3 1-6.8v-9.4h8.8l-0.1 0.1q-2.1 2.4-3.4 5-1.3 2.6-2 5.1-0.7 2.4-0.9 4.4-0.2 1.9-0.2 3.1 0 2.8 0.9 4.6 1 1.8 2.5 2.7 1.6 0.9 3.4 0.9c1.2 0 2.4-0.3 3.7-0.8q1.9-0.9 3.5-2.6 1.6-1.7 2.5-4.2 1-2.4 1-5.5 0-2.9-1-5.2-0.9-2.4-2.2-4-1.3-1.7-2.3-2.6-1-0.9-1-0.9v-0.1h7.4q0 0 0.7 0.9 0.6 0.9 1.3 3.1 0.6 2.2 0.6 5.9 0 2.8-1 6-1 3.2-2.8 6.3-1.7 3.2-3.9 5.8-2.2 2.6-4.6 4.1-2.4 1.5-4.7 1.5-2.1 0-3.4-1.2-1.3-1.2-1.9-3.2-0.6-2-0.8-4.6-0.1-2.5-0.1-5.2-1.1 2.4-2.3 4.9-1.1 2.5-2.6 4.7-1.5 2.1-3.3 3.4-1.9 1.3-4.3 1.3z"/></g><path class="a" d="m42.7 15.7c-1.6 0-3.4-0.7-4.1-2.2-0.6-1.3 0.4-2.6 2.2-2.6 1.7 0 3.5 0.9 4.1 2.5 0.5 1.3-0.5 2.3-2.2 2.3z"/><g clip-path="url(#cp3)"><path class="a" d="m9.6 31c1 1.3 0.8 3.2 0 4.6-0.8 1.5-2.2 2-3.1 0.9-1.1-1.3-1.1-3.3-0.3-4.8 0.9-1.5 2.5-1.8 3.4-0.7z"/></g><path class="a" d="m39.7 28.3q-2.9 0.7-5.6 1.9l-0.7 0.4q-1.7 0.8-3.3 1.7c-2.9 1.8-5.5 3.9-7.9 6.4-1.1 1.2-1.6 1.3-2.6-0.1-0.2-1 0.1-1.7 0.7-2.4 5.1-5.2 11-8.7 18-10.8 0.9-0.2 1.9-0.1 2.5 0.8 0.7 1 0.2 1.7-1.1 2.1z"/><g clip-path="url(#cp4)"><path class="a" d="m20 8.8c0.8 1.2 0 2.9-1.6 3.9-1.6 1-3.5 0.8-4.2-0.4-0.9-1.5 0.1-3.4 1.4-4.2 1.4-0.8 3.6-0.8 4.4 0.7z"/></g><path class="a" d="m40.4 17.5c-0.4 1.5-0.7 3-0.9 4.7q-13.8 2.9-22.8 13.7c-1-0.4-2-0.9-3.1-1.2q-0.1 0-0.1 0-0.2 0-0.3-0.1-0.5-0.1-1-0.1c0.1-0.8 0.4-1.1 0.8-1.2 4.3-1.9 7.1-7.2 7.2-11.8 0.1-1.6 0-3.1-0.1-4.6 0-0.4-0.2-0.7 0.2-1.2 0.9 0.5 1.8 1.1 2.7 1.6 2 1.2 4.3 1.9 6.5 2.3 3.3 0.4 6.6 0.1 9.3-1.9 0.4-0.3 0.8-0.6 1.6-0.2z"/><path class="a" d="m169.5 30.7h6.4l-14.2 13.9 14.6 20.4h-6l-12-17.2-5.3 5.1v12.1h-4.7v-34.3h4.7v16.6z"/><path class="a" d="m193.5 34.8v30.2h-4.6v-30.2h-11.6v-4.1h27.8v4.1z"/><g clip-path="url(#cp5)"><path class="a" d="m225.9 59.7l9.7-29h6.6v34.3h-4.5v-20.4-6.4q0.1-0.7 0.1-2h-0.1l-9.6 28.8h-4.6l-9.6-28.7h-0.1q0.1 5.2 0.1 8.3v20.4h-4.5v-34.3h6.6l9.8 29z"/></g><path  d="m63.5 70.4v0.8h-2.1v6.8h-1v-6.8h-2.1v-0.8z"/><path  d="m72.8 70.4v7.6h-1v-3.4h-3.9v3.4h-1v-7.6h1v3.4h3.9v-3.4z"/><path  d="m77.6 71.2v2.6h2.8v0.8h-2.8v2.6h3.1v0.8h-4.1v-7.6h4.1v0.8z"/><path  d="m92.9 78.1q-1.1 0-1.9-0.5-0.9-0.5-1.4-1.4-0.5-0.9-0.5-2 0-1.1 0.5-2 0.5-0.9 1.4-1.4 0.8-0.5 1.9-0.5 1.1 0 2 0.5 0.8 0.5 1.3 1.4 0.5 0.9 0.5 2 0 1.1-0.5 2-0.5 0.9-1.3 1.4-0.9 0.5-2 0.5zm0-0.9q0.8 0 1.4-0.3 0.7-0.4 1-1.1 0.4-0.7 0.4-1.6 0-0.9-0.4-1.6-0.3-0.7-1-1.1-0.6-0.3-1.4-0.3-0.8 0-1.4 0.3-0.7 0.4-1 1.1-0.4 0.7-0.4 1.6 0 0.9 0.4 1.6 0.3 0.7 1 1.1 0.6 0.3 1.4 0.3z"/><path  d="m106.2 78h-1l-4-6.1v6.1h-1v-7.6h1l4 6.1v-6.1h1z"/><path  d="m111.1 77.2h2.6v0.8h-3.6v-7.6h1z"/><path  d="m117.9 70.4v7.6h-1v-7.6z"/><path  d="m127.8 78h-1l-4-6.1v6.1h-1v-7.6h1l4 6.1v-6.1h1z"/><path  d="m132.6 71.2v2.6h2.8v0.8h-2.8v2.6h3.1v0.8h-4.1v-7.6h4.1v0.8z"/><path  d="m148.3 74.1q0.4 0.1 0.8 0.3 0.3 0.3 0.5 0.7 0.2 0.4 0.2 0.9 0 0.6-0.3 1-0.3 0.5-0.8 0.8-0.6 0.2-1.4 0.2h-2.8v-7.6h2.7q0.8 0 1.3 0.3 0.6 0.2 0.9 0.6 0.2 0.5 0.2 1 0 0.7-0.3 1.2-0.4 0.4-1 0.6zm-2.8-0.4h1.6q0.8 0 1.1-0.3 0.4-0.4 0.4-0.9 0-0.6-0.4-1-0.4-0.3-1.1-0.3h-1.6zm1.7 3.5q0.8 0 1.2-0.3 0.4-0.4 0.4-1 0-0.6-0.4-1-0.5-0.4-1.2-0.4h-1.7v2.7z"/><path  d="m154.3 71.2v2.6h2.8v0.8h-2.8v2.6h3.2v0.8h-4.2v-7.6h4.2v0.8z"/><path  d="m165.6 76.3h-3.3l-0.6 1.7h-1.1l2.8-7.6h1.2l2.7 7.6h-1zm-0.3-0.8l-1.4-3.8-1.4 3.8z"/><path  d="m171.6 70.4v4.8q0 1.1 0.5 1.6 0.5 0.4 1.4 0.4 0.9 0 1.4-0.4 0.5-0.5 0.5-1.6v-4.8h1v4.8q0 1-0.4 1.6-0.4 0.7-1 1-0.7 0.3-1.5 0.3-0.8 0-1.5-0.3-0.6-0.3-1-1-0.4-0.6-0.4-1.6v-4.8z"/><path  d="m184.9 70.4v0.8h-2.1v6.8h-1v-6.8h-2.1v-0.8z"/><path  d="m193.6 70.4l-2.5 4.7v2.9h-1v-2.9l-2.5-4.7h1.1l1.9 3.9 1.9-3.9z"/><path  d="m204.3 78.1q-0.7 0-1.3-0.3-0.6-0.2-1-0.7-0.3-0.5-0.3-1.1h1q0.1 0.5 0.5 0.9 0.4 0.4 1.1 0.4 0.7 0 1.1-0.4 0.4-0.3 0.5-0.9 0-0.4-0.3-0.7-0.2-0.3-0.6-0.4-0.4-0.2-1-0.4-0.7-0.1-1.2-0.3-0.4-0.2-0.8-0.7-0.3-0.4-0.3-1.1 0-0.6 0.3-1.1 0.4-0.5 0.9-0.8 0.6-0.2 1.4-0.2 1 0 1.7 0.5 0.7 0.6 0.8 1.5h-1.1q-0.1-0.5-0.5-0.8-0.4-0.4-1-0.4-0.7 0-1.1 0.4-0.4 0.3-0.4 0.9 0 0.4 0.3 0.6 0.2 0.3 0.6 0.5 0.3 0.1 0.9 0.3 0.8 0.2 1.2 0.4 0.5 0.2 0.8 0.6 0.4 0.4 0.4 1.2 0 0.5-0.3 1-0.3 0.5-0.9 0.8-0.6 0.3-1.4 0.3z"/><path  d="m215.2 70.4v0.8h-2.1v6.8h-1v-6.8h-2.1v-0.8z"/><path  d="m222 78.1q-1 0-1.9-0.5-0.9-0.5-1.4-1.4-0.5-0.9-0.5-2 0-1.1 0.5-2 0.5-0.9 1.4-1.4 0.9-0.5 1.9-0.5 1.1 0 2 0.5 0.9 0.5 1.4 1.4 0.5 0.9 0.5 2 0 1.1-0.5 2-0.5 0.9-1.4 1.4-0.9 0.5-2 0.5zm0-0.9q0.8 0 1.5-0.3 0.6-0.4 1-1.1 0.3-0.7 0.3-1.6 0-0.9-0.3-1.6-0.4-0.7-1-1.1-0.7-0.3-1.5-0.3-0.8 0-1.4 0.3-0.7 0.4-1 1.1-0.4 0.7-0.4 1.6 0 0.9 0.4 1.6 0.3 0.7 1 1.1 0.6 0.3 1.4 0.3z"/><path  d="m233.4 78l-1.9-3.1h-1.2v3.1h-1v-7.6h2.5q0.8 0 1.4 0.3 0.7 0.3 1 0.8 0.2 0.5 0.2 1.1 0 0.8-0.4 1.4-0.5 0.6-1.4 0.8l1.9 3.2zm-3-3.9h1.5q0.8 0 1.2-0.4 0.4-0.4 0.4-1.1 0-0.6-0.4-1-0.4-0.4-1.2-0.4h-1.5z"/><path  d="m239.1 71.2v2.6h2.8v0.8h-2.8v2.6h3.1v0.8h-4.1v-7.6h4.1v0.8z"/></svg>