<svg xmlns="http://www.w3.org/2000/svg" xmlns:xlink="http://www.w3.org/1999/xlink" width="378" zoomAndPan="magnify" viewBox="0 0 282.96 283.499989" height="378" preserveAspectRatio="xMidYMid meet" version="1.0"><metadata><ContainsAiGeneratedContent>Yes</ContainsAiGeneratedContent></metadata><defs><g/><clipPath id="cf8f5f338d"><path d="M 44 129 L 73 129 L 73 178.65625 L 44 178.65625 Z M 44 129 " clip-rule="nonzero"/></clipPath><clipPath id="a052e548b5"><path d="M 121.289062 129 L 163.617188 129 L 163.617188 163 L 121.289062 163 Z M 121.289062 129 " clip-rule="nonzero"/></clipPath><clipPath id="1a1839d285"><path d="M 23.570312 127 L 28.292969 127 L 28.292969 134.65625 L 23.570312 134.65625 Z M 23.570312 127 " clip-rule="nonzero"/></clipPath><clipPath id="9a0aed0ba7"><path d="M 31.222656 104.554688 L 38.542969 104.554688 L 38.542969 110.441406 L 31.222656 110.441406 Z M 31.222656 104.554688 " clip-rule="nonzero"/></clipPath><clipPath id="de01741cf9"><path d="M 227 127 L 260.15625 127 L 260.15625 162 L 227 162 Z M 227 127 " clip-rule="nonzero"/></clipPath></defs><g clip-path="url(#cf8f5f338d)"><path fill="#000000" d="M 44.1875 143.9375 C 44.1875 142.117188 44.46875 140.339844 45.050781 138.59375 C 45.632812 136.84375 46.5 135.261719 47.625 133.847656 C 48.761719 132.433594 50.175781 131.292969 51.839844 130.445312 C 53.519531 129.59375 55.425781 129.175781 57.582031 129.175781 L 72.585938 129.175781 C 72.585938 129.175781 72.605469 164.269531 72.605469 164.269531 C 72.609375 167.554688 71.921875 170.261719 70.550781 172.390625 C 69.195312 174.503906 67.347656 176.082031 65.042969 177.105469 C 62.730469 178.140625 60.164062 178.652344 57.347656 178.644531 C 54.585938 178.644531 52.21875 178.238281 50.21875 177.453125 C 48.234375 176.648438 46.414062 175.40625 44.722656 173.714844 L 44.722656 164.273438 L 44.871094 164.273438 C 46.589844 166.550781 48.230469 168.417969 49.824219 169.859375 C 51.414062 171.304688 53.097656 172.378906 54.835938 173.0625 C 56.589844 173.742188 58.566406 174.105469 60.734375 174.085938 C 63.730469 174.089844 66.074219 173.160156 67.777344 171.316406 C 69.472656 169.480469 70.335938 166.84375 70.332031 163.417969 L 70.320312 157.945312 C 69.253906 159.316406 67.859375 160.46875 66.152344 161.390625 C 64.441406 162.316406 62.574219 162.789062 60.539062 162.792969 C 58.09375 162.792969 55.859375 162.289062 53.855469 161.257812 C 51.84375 160.226562 50.109375 158.828125 48.660156 157.066406 C 47.210938 155.289062 46.109375 153.273438 45.320312 151.019531 C 44.5625 148.78125 44.175781 146.417969 44.175781 143.9375 Z M 51.101562 138.761719 C 51.101562 141.5 51.5 144.085938 52.300781 146.535156 C 53.101562 148.976562 54.144531 151.136719 55.445312 153.054688 C 56.753906 154.960938 58.1875 156.445312 59.734375 157.535156 C 61.289062 158.605469 62.859375 159.144531 64.421875 159.140625 C 65.921875 159.136719 67.09375 158.773438 67.972656 158.011719 C 68.847656 157.253906 69.472656 156.300781 69.851562 155.15625 C 70.230469 153.996094 70.421875 152.808594 70.417969 151.574219 C 70.417969 150.039062 70.28125 148.363281 70.023438 146.535156 C 69.765625 144.714844 69.332031 142.886719 68.730469 141.058594 C 68.128906 139.234375 67.335938 137.550781 66.359375 136.019531 C 65.382812 134.492188 64.191406 133.261719 62.75 132.355469 C 61.3125 131.4375 59.625 130.984375 57.683594 130.992188 C 55.792969 130.992188 54.234375 131.710938 52.976562 133.140625 C 51.734375 134.585938 51.109375 136.460938 51.109375 138.765625 Z M 51.101562 138.761719 " fill-opacity="1" fill-rule="nonzero"/></g><path fill="#000000" d="M 77.234375 114.070312 L 87.371094 114.070312 L 87.371094 114.214844 C 85.515625 116.136719 83.996094 118.285156 82.824219 120.664062 C 81.648438 123.03125 80.792969 125.523438 80.238281 128.125 C 79.675781 130.734375 79.410156 133.339844 79.410156 135.949219 C 79.410156 138.558594 79.566406 141.066406 79.898438 143.871094 C 80.226562 146.695312 80.878906 149.664062 81.867188 152.8125 C 82.875 155.953125 84.3125 159.261719 86.230469 162.746094 L 86.230469 162.886719 L 77.21875 162.886719 L 77.234375 114.066406 Z M 77.234375 114.070312 " fill-opacity="1" fill-rule="nonzero"/><path fill="#000000" d="M 87.464844 149.105469 C 87.464844 145.839844 87.980469 142.957031 89.023438 140.472656 C 90.066406 138 91.429688 135.914062 93.117188 134.230469 C 94.800781 132.546875 96.636719 131.28125 98.640625 130.433594 C 100.644531 129.589844 102.601562 129.167969 104.535156 129.167969 C 106.863281 129.167969 108.9375 129.675781 110.710938 130.675781 C 112.503906 131.667969 113.902344 133.199219 114.929688 135.238281 C 115.957031 137.28125 116.460938 139.855469 116.460938 142.949219 C 116.460938 146.039062 115.929688 148.730469 114.902344 151.171875 C 113.859375 153.632812 112.488281 155.730469 110.785156 157.472656 C 109.082031 159.230469 107.234375 160.566406 105.25 161.484375 C 103.277344 162.421875 101.332031 162.882812 99.398438 162.882812 C 97.070312 162.882812 94.976562 162.320312 93.191406 161.199219 C 91.402344 160.074219 89.992188 158.480469 88.976562 156.410156 C 87.976562 154.34375 87.476562 151.910156 87.476562 149.105469 Z M 94.792969 149.203125 C 94.792969 152.863281 95.292969 155.761719 96.289062 157.917969 C 97.289062 160.074219 98.695312 161.144531 100.480469 161.144531 C 103.183594 161.144531 105.3125 159.648438 106.875 156.644531 C 108.433594 153.636719 109.203125 149.175781 109.203125 143.25 C 109.203125 139.105469 108.703125 136.003906 107.703125 133.945312 C 106.71875 131.886719 105.3125 130.847656 103.484375 130.847656 C 101.65625 130.847656 100.152344 131.578125 98.867188 133.066406 C 97.558594 134.535156 96.566406 136.632812 95.851562 139.367188 C 95.132812 142.109375 94.792969 145.375 94.792969 149.203125 Z M 94.792969 149.203125 " fill-opacity="1" fill-rule="nonzero"/><g clip-path="url(#a052e548b5)"><path fill="#000000" d="M 127.972656 162.867188 C 126.472656 162.867188 125.300781 162.503906 124.441406 161.777344 C 123.585938 161.050781 122.941406 160.042969 122.542969 158.777344 C 122.140625 157.511719 121.898438 156.066406 121.800781 154.480469 C 121.703125 152.890625 121.675781 151.21875 121.6875 149.46875 C 121.714844 147.71875 121.742188 145.992188 121.742188 144.296875 L 121.742188 129.214844 L 130.503906 129.214844 L 130.503906 129.363281 C 129.078125 130.953125 127.929688 132.613281 127.058594 134.347656 C 126.171875 136.082031 125.511719 137.769531 125.050781 139.414062 C 124.597656 141.042969 124.292969 142.519531 124.136719 143.832031 C 123.992188 145.125 123.921875 146.160156 123.921875 146.921875 C 123.921875 149.675781 124.464844 151.683594 125.550781 152.949219 C 126.65625 154.214844 127.941406 154.859375 129.429688 154.859375 C 130.632812 154.859375 131.890625 154.492188 133.175781 153.75 C 134.476562 153.003906 135.679688 151.925781 136.792969 150.511719 C 137.898438 149.097656 138.796875 147.410156 139.46875 145.414062 C 140.15625 143.433594 140.484375 141.175781 140.484375 138.648438 L 140.484375 129.179688 L 149.25 129.179688 L 149.25 129.324219 C 147.820312 130.914062 146.65625 132.574219 145.789062 134.308594 C 144.917969 136.042969 144.257812 137.730469 143.796875 139.375 C 143.339844 141.011719 143.039062 142.480469 142.882812 143.796875 C 142.742188 145.09375 142.671875 146.128906 142.671875 146.882812 C 142.671875 148.78125 142.984375 150.320312 143.625 151.53125 C 144.257812 152.726562 145.082031 153.632812 146.113281 154.226562 C 147.144531 154.828125 148.261719 155.117188 149.457031 155.117188 C 150.65625 155.117188 151.933594 154.839844 153.1875 154.253906 C 154.460938 153.671875 155.621094 152.8125 156.664062 151.675781 C 157.722656 150.539062 158.582031 149.152344 159.238281 147.519531 C 159.898438 145.902344 160.21875 144.035156 160.21875 141.96875 C 160.21875 140.046875 159.886719 138.308594 159.238281 136.761719 C 158.582031 135.207031 157.824219 133.863281 156.964844 132.757812 C 156.109375 131.652344 155.351562 130.804688 154.691406 130.210938 C 154.050781 129.609375 153.71875 129.300781 153.71875 129.300781 L 153.71875 129.152344 L 161.128906 129.152344 C 161.128906 129.152344 161.34375 129.476562 161.78125 130.101562 C 162.210938 130.726562 162.644531 131.777344 163.074219 133.234375 C 163.5 134.695312 163.714844 136.640625 163.714844 139.089844 C 163.714844 140.9375 163.371094 142.9375 162.683594 145.09375 C 161.996094 147.25 161.078125 149.363281 159.9375 151.449219 C 158.785156 153.535156 157.460938 155.441406 155.976562 157.175781 C 154.503906 158.894531 152.960938 160.261719 151.371094 161.285156 C 149.78125 162.304688 148.222656 162.816406 146.707031 162.816406 C 145.277344 162.816406 144.132812 162.425781 143.289062 161.621094 C 142.445312 160.835938 141.820312 159.757812 141.417969 158.386719 C 141.015625 157.035156 140.75 155.503906 140.632812 153.816406 C 140.515625 152.125 140.472656 150.375 140.472656 148.554688 C 139.757812 150.214844 139.019531 151.878906 138.226562 153.539062 C 137.441406 155.210938 136.570312 156.757812 135.597656 158.171875 C 134.621094 159.574219 133.519531 160.707031 132.261719 161.554688 C 131.003906 162.441406 129.570312 162.867188 127.957031 162.867188 L 127.957031 162.875 Z M 127.972656 162.867188 " fill-opacity="1" fill-rule="nonzero"/></g><path fill="#d8423f" d="M 60.675781 112.722656 C 59.070312 112.738281 57.257812 111.964844 56.582031 110.472656 C 55.996094 109.1875 57.027344 107.863281 58.800781 107.863281 C 60.460938 107.863281 62.289062 108.824219 62.910156 110.386719 C 63.410156 111.671875 62.378906 112.707031 60.675781 112.722656 Z M 60.675781 112.722656 " fill-opacity="1" fill-rule="nonzero"/><g clip-path="url(#1a1839d285)"><path fill="#d8423f" d="M 27.570312 127.96875 C 28.570312 129.257812 28.398438 131.238281 27.640625 132.640625 C 26.839844 134.132812 25.4375 134.578125 24.53125 133.515625 C 23.445312 132.238281 23.445312 130.164062 24.21875 128.703125 C 25.050781 127.15625 26.707031 126.851562 27.570312 127.96875 Z M 27.570312 127.96875 " fill-opacity="1" fill-rule="nonzero"/></g><path fill="#d8423f" d="M 57.671875 125.261719 C 55.753906 125.78125 53.921875 126.441406 52.117188 127.238281 L 51.359375 127.585938 L 51.371094 127.585938 C 50.277344 128.097656 49.191406 128.652344 48.117188 129.261719 C 45.199219 131.140625 42.597656 133.230469 40.234375 135.710938 C 39.058594 136.945312 38.59375 136.976562 37.585938 135.613281 C 37.445312 134.632812 37.730469 133.878906 38.328125 133.21875 C 43.417969 127.96875 49.269531 124.460938 56.292969 122.441406 C 57.222656 122.210938 58.164062 122.28125 58.753906 123.15625 C 59.457031 124.230469 59.011719 124.890625 57.664062 125.261719 Z M 57.671875 125.261719 " fill-opacity="1" fill-rule="nonzero"/><g clip-path="url(#9a0aed0ba7)"><path fill="#d8423f" d="M 38.039062 105.757812 C 38.777344 106.992188 37.992188 108.75 36.40625 109.714844 C 34.820312 110.671875 32.902344 110.527344 32.160156 109.296875 C 31.261719 107.804688 32.261719 105.945312 33.648438 105.113281 C 35.039062 104.28125 37.152344 104.28125 38.042969 105.757812 Z M 38.039062 105.757812 " fill-opacity="1" fill-rule="nonzero"/></g><path fill="#d8423f" d="M 58.359375 114.5 C 58.027344 115.964844 57.742188 117.484375 57.484375 119.15625 C 48.300781 121.09375 40.695312 125.691406 34.714844 132.9375 C 33.722656 132.476562 32.683594 132 31.59375 131.726562 C 31.558594 131.726562 31.519531 131.722656 31.480469 131.71875 C 31.382812 131.707031 31.289062 131.683594 31.207031 131.640625 C 30.875 131.570312 30.539062 131.523438 30.195312 131.507812 C 30.300781 130.734375 30.628906 130.390625 30.96875 130.257812 C 35.347656 128.425781 38.066406 123.09375 38.207031 118.480469 C 38.269531 116.90625 38.222656 115.382812 38.136719 113.863281 C 38.125 113.515625 37.949219 113.175781 38.269531 112.683594 C 39.195312 113.214844 40.097656 113.773438 41.03125 114.304688 C 43.035156 115.480469 45.25 116.238281 47.523438 116.636719 C 50.839844 116.992188 54.085938 116.707031 56.847656 114.6875 C 57.195312 114.429688 57.5625 114.117188 58.363281 114.488281 Z M 58.359375 114.5 " fill-opacity="1" fill-rule="nonzero"/><path fill="#d8423f" d="M 187.519531 127.71875 L 193.90625 127.71875 L 179.667969 141.554688 L 194.277344 161.957031 L 188.28125 161.957031 L 176.335938 144.785156 L 170.960938 149.945312 L 170.960938 161.957031 L 166.335938 161.957031 L 166.335938 127.71875 L 170.960938 127.71875 L 170.960938 144.316406 Z M 187.519531 127.71875 " fill-opacity="1" fill-rule="nonzero"/><path fill="#d8423f" d="M 211.511719 131.820312 L 211.511719 161.957031 L 206.886719 161.957031 L 206.886719 131.820312 L 195.320312 131.820312 L 195.320312 127.71875 L 223.078125 127.71875 L 223.078125 131.820312 Z M 211.511719 131.820312 " fill-opacity="1" fill-rule="nonzero"/><g clip-path="url(#de01741cf9)"><path fill="#d8423f" d="M 243.871094 156.664062 L 253.585938 127.722656 L 260.15625 127.722656 L 260.15625 161.964844 L 255.679688 161.964844 L 255.679688 141.5625 L 255.722656 135.160156 C 255.75 134.75 255.765625 134.101562 255.765625 133.214844 L 255.671875 133.214844 L 246.050781 161.964844 L 241.488281 161.964844 L 231.875 133.257812 L 231.773438 133.257812 C 231.84375 136.753906 231.875 139.519531 231.875 141.554688 L 231.875 161.957031 L 227.398438 161.957031 L 227.398438 127.71875 L 234.011719 127.71875 L 243.773438 156.660156 L 243.867188 156.660156 Z M 243.871094 156.664062 " fill-opacity="1" fill-rule="nonzero"/></g><g fill="#000000" fill-opacity="1"><g transform="translate(75.939452, 175.034369)"><g><path d="M 5.546875 -7.640625 L 5.546875 -6.828125 L 3.46875 -6.828125 L 3.46875 0 L 2.46875 0 L 2.46875 -6.828125 L 0.375 -6.828125 L 0.375 -7.640625 Z M 5.546875 -7.640625 "/></g></g></g><g fill="#000000" fill-opacity="1"><g transform="translate(84.01702, 175.034369)"><g><path d="M 6.734375 -7.640625 L 6.734375 0 L 5.734375 0 L 5.734375 -3.46875 L 1.84375 -3.46875 L 1.84375 0 L 0.84375 0 L 0.84375 -7.640625 L 1.84375 -7.640625 L 1.84375 -4.28125 L 5.734375 -4.28125 L 5.734375 -7.640625 Z M 6.734375 -7.640625 "/></g></g></g><g fill="#000000" fill-opacity="1"><g transform="translate(93.751495, 175.034369)"><g><path d="M 1.84375 -6.828125 L 1.84375 -4.28125 L 4.625 -4.28125 L 4.625 -3.453125 L 1.84375 -3.453125 L 1.84375 -0.828125 L 4.953125 -0.828125 L 4.953125 0 L 0.84375 0 L 0.84375 -7.65625 L 4.953125 -7.65625 L 4.953125 -6.828125 Z M 1.84375 -6.828125 "/></g></g></g><g fill="#000000" fill-opacity="1"><g transform="translate(101.521829, 175.034369)"><g/></g></g><g fill="#000000" fill-opacity="1"><g transform="translate(106.592835, 175.034369)"><g><path d="M 4.3125 0.078125 C 3.601562 0.078125 2.953125 -0.0859375 2.359375 -0.421875 C 1.773438 -0.753906 1.3125 -1.21875 0.96875 -1.8125 C 0.632812 -2.40625 0.46875 -3.078125 0.46875 -3.828125 C 0.46875 -4.578125 0.632812 -5.25 0.96875 -5.84375 C 1.3125 -6.4375 1.773438 -6.898438 2.359375 -7.234375 C 2.953125 -7.566406 3.601562 -7.734375 4.3125 -7.734375 C 5.03125 -7.734375 5.679688 -7.566406 6.265625 -7.234375 C 6.847656 -6.898438 7.304688 -6.4375 7.640625 -5.84375 C 7.984375 -5.25 8.15625 -4.578125 8.15625 -3.828125 C 8.15625 -3.078125 7.984375 -2.40625 7.640625 -1.8125 C 7.304688 -1.21875 6.847656 -0.753906 6.265625 -0.421875 C 5.679688 -0.0859375 5.03125 0.078125 4.3125 0.078125 Z M 4.3125 -0.796875 C 4.84375 -0.796875 5.320312 -0.914062 5.75 -1.15625 C 6.175781 -1.40625 6.507812 -1.757812 6.75 -2.21875 C 7 -2.6875 7.125 -3.222656 7.125 -3.828125 C 7.125 -4.441406 7 -4.976562 6.75 -5.4375 C 6.507812 -5.894531 6.175781 -6.242188 5.75 -6.484375 C 5.332031 -6.734375 4.851562 -6.859375 4.3125 -6.859375 C 3.769531 -6.859375 3.285156 -6.734375 2.859375 -6.484375 C 2.441406 -6.242188 2.109375 -5.894531 1.859375 -5.4375 C 1.609375 -4.976562 1.484375 -4.441406 1.484375 -3.828125 C 1.484375 -3.222656 1.609375 -2.6875 1.859375 -2.21875 C 2.109375 -1.757812 2.445312 -1.40625 2.875 -1.15625 C 3.300781 -0.914062 3.78125 -0.796875 4.3125 -0.796875 Z M 4.3125 -0.796875 "/></g></g></g><g fill="#000000" fill-opacity="1"><g transform="translate(117.358755, 175.034369)"><g><path d="M 6.859375 0 L 5.859375 0 L 1.84375 -6.09375 L 1.84375 0 L 0.84375 0 L 0.84375 -7.65625 L 1.84375 -7.65625 L 5.859375 -1.578125 L 5.859375 -7.65625 L 6.859375 -7.65625 Z M 6.859375 0 "/></g></g></g><g fill="#000000" fill-opacity="1"><g transform="translate(127.213922, 175.034369)"><g><path d="M 1.84375 -0.8125 L 4.515625 -0.8125 L 4.515625 0 L 0.84375 0 L 0.84375 -7.640625 L 1.84375 -7.640625 Z M 1.84375 -0.8125 "/></g></g></g><g fill="#000000" fill-opacity="1"><g transform="translate(134.095448, 175.034369)"><g><path d="M 1.84375 -7.640625 L 1.84375 0 L 0.84375 0 L 0.84375 -7.640625 Z M 1.84375 -7.640625 "/></g></g></g><g fill="#000000" fill-opacity="1"><g transform="translate(138.936019, 175.034369)"><g><path d="M 6.859375 0 L 5.859375 0 L 1.84375 -6.09375 L 1.84375 0 L 0.84375 0 L 0.84375 -7.65625 L 1.84375 -7.65625 L 5.859375 -1.578125 L 5.859375 -7.65625 L 6.859375 -7.65625 Z M 6.859375 0 "/></g></g></g><g fill="#000000" fill-opacity="1"><g transform="translate(148.791186, 175.034369)"><g><path d="M 1.84375 -6.828125 L 1.84375 -4.28125 L 4.625 -4.28125 L 4.625 -3.453125 L 1.84375 -3.453125 L 1.84375 -0.828125 L 4.953125 -0.828125 L 4.953125 0 L 0.84375 0 L 0.84375 -7.65625 L 4.953125 -7.65625 L 4.953125 -6.828125 Z M 1.84375 -6.828125 "/></g></g></g><g fill="#000000" fill-opacity="1"><g transform="translate(156.561517, 175.034369)"><g/></g></g><g fill="#000000" fill-opacity="1"><g transform="translate(161.63252, 175.034369)"><g><path d="M 4.671875 -3.9375 C 4.953125 -3.894531 5.207031 -3.78125 5.4375 -3.59375 C 5.664062 -3.414062 5.847656 -3.191406 5.984375 -2.921875 C 6.117188 -2.648438 6.1875 -2.359375 6.1875 -2.046875 C 6.1875 -1.660156 6.085938 -1.3125 5.890625 -1 C 5.691406 -0.6875 5.40625 -0.441406 5.03125 -0.265625 C 4.65625 -0.0859375 4.210938 0 3.703125 0 L 0.84375 0 L 0.84375 -7.640625 L 3.59375 -7.640625 C 4.101562 -7.640625 4.539062 -7.550781 4.90625 -7.375 C 5.28125 -7.207031 5.554688 -6.976562 5.734375 -6.6875 C 5.921875 -6.394531 6.015625 -6.066406 6.015625 -5.703125 C 6.015625 -5.253906 5.890625 -4.878906 5.640625 -4.578125 C 5.398438 -4.285156 5.078125 -4.070312 4.671875 -3.9375 Z M 1.84375 -4.34375 L 3.515625 -4.34375 C 3.984375 -4.34375 4.34375 -4.453125 4.59375 -4.671875 C 4.851562 -4.890625 4.984375 -5.191406 4.984375 -5.578125 C 4.984375 -5.972656 4.851562 -6.28125 4.59375 -6.5 C 4.34375 -6.71875 3.976562 -6.828125 3.5 -6.828125 L 1.84375 -6.828125 Z M 3.609375 -0.828125 C 4.109375 -0.828125 4.492188 -0.941406 4.765625 -1.171875 C 5.046875 -1.410156 5.1875 -1.738281 5.1875 -2.15625 C 5.1875 -2.570312 5.039062 -2.898438 4.75 -3.140625 C 4.457031 -3.390625 4.066406 -3.515625 3.578125 -3.515625 L 1.84375 -3.515625 L 1.84375 -0.828125 Z M 3.609375 -0.828125 "/></g></g></g><g fill="#000000" fill-opacity="1"><g transform="translate(170.500133, 175.034369)"><g><path d="M 1.84375 -6.828125 L 1.84375 -4.28125 L 4.625 -4.28125 L 4.625 -3.453125 L 1.84375 -3.453125 L 1.84375 -0.828125 L 4.953125 -0.828125 L 4.953125 0 L 0.84375 0 L 0.84375 -7.65625 L 4.953125 -7.65625 L 4.953125 -6.828125 Z M 1.84375 -6.828125 "/></g></g></g><g fill="#000000" fill-opacity="1"><g transform="translate(178.27047, 175.034369)"><g><path d="M 5.359375 -1.703125 L 2.03125 -1.703125 L 1.421875 0 L 0.359375 0 L 3.125 -7.59375 L 4.28125 -7.59375 L 7.03125 0 L 5.984375 0 Z M 5.078125 -2.515625 L 3.703125 -6.375 L 2.3125 -2.515625 Z M 5.078125 -2.515625 "/></g></g></g><g fill="#000000" fill-opacity="1"><g transform="translate(187.80744, 175.034369)"><g><path d="M 1.828125 -7.640625 L 1.828125 -2.8125 C 1.828125 -2.125 1.988281 -1.613281 2.3125 -1.28125 C 2.644531 -0.957031 3.109375 -0.796875 3.703125 -0.796875 C 4.285156 -0.796875 4.742188 -0.957031 5.078125 -1.28125 C 5.410156 -1.613281 5.578125 -2.125 5.578125 -2.8125 L 5.578125 -7.640625 L 6.578125 -7.640625 L 6.578125 -2.8125 C 6.578125 -2.175781 6.445312 -1.640625 6.1875 -1.203125 C 5.9375 -0.773438 5.59375 -0.453125 5.15625 -0.234375 C 4.726562 -0.0234375 4.242188 0.078125 3.703125 0.078125 C 3.160156 0.078125 2.671875 -0.0234375 2.234375 -0.234375 C 1.796875 -0.453125 1.453125 -0.773438 1.203125 -1.203125 C 0.953125 -1.640625 0.828125 -2.175781 0.828125 -2.8125 L 0.828125 -7.640625 Z M 1.828125 -7.640625 "/></g></g></g><g fill="#000000" fill-opacity="1"><g transform="translate(197.355378, 175.034369)"><g><path d="M 5.546875 -7.640625 L 5.546875 -6.828125 L 3.46875 -6.828125 L 3.46875 0 L 2.46875 0 L 2.46875 -6.828125 L 0.375 -6.828125 L 0.375 -7.640625 Z M 5.546875 -7.640625 "/></g></g></g><g fill="#000000" fill-opacity="1"><g transform="translate(205.43295, 175.034369)"><g><path d="M 6.203125 -7.640625 L 3.703125 -2.890625 L 3.703125 0 L 2.703125 0 L 2.703125 -2.890625 L 0.203125 -7.640625 L 1.3125 -7.640625 L 3.203125 -3.765625 L 5.09375 -7.640625 Z M 6.203125 -7.640625 "/></g></g></g><g fill="#000000" fill-opacity="1"><g transform="translate(213.982355, 175.034369)"><g/></g></g><g fill="#000000" fill-opacity="1"><g transform="translate(219.053363, 175.034369)"><g><path d="M 3.265625 0.078125 C 2.765625 0.078125 2.3125 -0.0078125 1.90625 -0.1875 C 1.507812 -0.363281 1.195312 -0.613281 0.96875 -0.9375 C 0.75 -1.257812 0.632812 -1.628906 0.625 -2.046875 L 1.6875 -2.046875 C 1.726562 -1.679688 1.875 -1.375 2.125 -1.125 C 2.382812 -0.882812 2.765625 -0.765625 3.265625 -0.765625 C 3.742188 -0.765625 4.117188 -0.882812 4.390625 -1.125 C 4.660156 -1.363281 4.796875 -1.671875 4.796875 -2.046875 C 4.796875 -2.335938 4.71875 -2.570312 4.5625 -2.75 C 4.40625 -2.9375 4.203125 -3.078125 3.953125 -3.171875 C 3.710938 -3.265625 3.390625 -3.367188 2.984375 -3.484375 C 2.484375 -3.609375 2.078125 -3.734375 1.765625 -3.859375 C 1.460938 -3.992188 1.203125 -4.203125 0.984375 -4.484375 C 0.773438 -4.765625 0.671875 -5.144531 0.671875 -5.625 C 0.671875 -6.039062 0.773438 -6.410156 0.984375 -6.734375 C 1.203125 -7.054688 1.5 -7.304688 1.875 -7.484375 C 2.257812 -7.660156 2.703125 -7.75 3.203125 -7.75 C 3.921875 -7.75 4.507812 -7.566406 4.96875 -7.203125 C 5.425781 -6.847656 5.679688 -6.375 5.734375 -5.78125 L 4.640625 -5.78125 C 4.597656 -6.070312 4.441406 -6.328125 4.171875 -6.546875 C 3.898438 -6.773438 3.546875 -6.890625 3.109375 -6.890625 C 2.691406 -6.890625 2.347656 -6.78125 2.078125 -6.5625 C 1.816406 -6.34375 1.6875 -6.039062 1.6875 -5.65625 C 1.6875 -5.382812 1.765625 -5.160156 1.921875 -4.984375 C 2.078125 -4.804688 2.269531 -4.671875 2.5 -4.578125 C 2.738281 -4.484375 3.066406 -4.378906 3.484375 -4.265625 C 3.984375 -4.128906 4.382812 -3.992188 4.6875 -3.859375 C 5 -3.722656 5.265625 -3.515625 5.484375 -3.234375 C 5.703125 -2.953125 5.8125 -2.566406 5.8125 -2.078125 C 5.8125 -1.710938 5.710938 -1.363281 5.515625 -1.03125 C 5.316406 -0.695312 5.023438 -0.425781 4.640625 -0.21875 C 4.253906 -0.0195312 3.796875 0.078125 3.265625 0.078125 Z M 3.265625 0.078125 "/></g></g></g><g fill="#000000" fill-opacity="1"><g transform="translate(227.635692, 175.034369)"><g><path d="M 5.546875 -7.640625 L 5.546875 -6.828125 L 3.46875 -6.828125 L 3.46875 0 L 2.46875 0 L 2.46875 -6.828125 L 0.375 -6.828125 L 0.375 -7.640625 Z M 5.546875 -7.640625 "/></g></g></g><g fill="#000000" fill-opacity="1"><g transform="translate(235.713265, 175.034369)"><g><path d="M 4.3125 0.078125 C 3.601562 0.078125 2.953125 -0.0859375 2.359375 -0.421875 C 1.773438 -0.753906 1.3125 -1.21875 0.96875 -1.8125 C 0.632812 -2.40625 0.46875 -3.078125 0.46875 -3.828125 C 0.46875 -4.578125 0.632812 -5.25 0.96875 -5.84375 C 1.3125 -6.4375 1.773438 -6.898438 2.359375 -7.234375 C 2.953125 -7.566406 3.601562 -7.734375 4.3125 -7.734375 C 5.03125 -7.734375 5.679688 -7.566406 6.265625 -7.234375 C 6.847656 -6.898438 7.304688 -6.4375 7.640625 -5.84375 C 7.984375 -5.25 8.15625 -4.578125 8.15625 -3.828125 C 8.15625 -3.078125 7.984375 -2.40625 7.640625 -1.8125 C 7.304688 -1.21875 6.847656 -0.753906 6.265625 -0.421875 C 5.679688 -0.0859375 5.03125 0.078125 4.3125 0.078125 Z M 4.3125 -0.796875 C 4.84375 -0.796875 5.320312 -0.914062 5.75 -1.15625 C 6.175781 -1.40625 6.507812 -1.757812 6.75 -2.21875 C 7 -2.6875 7.125 -3.222656 7.125 -3.828125 C 7.125 -4.441406 7 -4.976562 6.75 -5.4375 C 6.507812 -5.894531 6.175781 -6.242188 5.75 -6.484375 C 5.332031 -6.734375 4.851562 -6.859375 4.3125 -6.859375 C 3.769531 -6.859375 3.285156 -6.734375 2.859375 -6.484375 C 2.441406 -6.242188 2.109375 -5.894531 1.859375 -5.4375 C 1.609375 -4.976562 1.484375 -4.441406 1.484375 -3.828125 C 1.484375 -3.222656 1.609375 -2.6875 1.859375 -2.21875 C 2.109375 -1.757812 2.445312 -1.40625 2.875 -1.15625 C 3.300781 -0.914062 3.78125 -0.796875 4.3125 -0.796875 Z M 4.3125 -0.796875 "/></g></g></g><g fill="#000000" fill-opacity="1"><g transform="translate(246.479188, 175.034369)"><g><path d="M 4.875 0 L 3.046875 -3.125 L 1.84375 -3.125 L 1.84375 0 L 0.84375 0 L 0.84375 -7.640625 L 3.3125 -7.640625 C 3.882812 -7.640625 4.367188 -7.539062 4.765625 -7.34375 C 5.171875 -7.144531 5.472656 -6.878906 5.671875 -6.546875 C 5.867188 -6.210938 5.96875 -5.828125 5.96875 -5.390625 C 5.96875 -4.867188 5.816406 -4.40625 5.515625 -4 C 5.210938 -3.601562 4.753906 -3.335938 4.140625 -3.203125 L 6.0625 0 Z M 1.84375 -3.921875 L 3.3125 -3.921875 C 3.851562 -3.921875 4.257812 -4.054688 4.53125 -4.328125 C 4.800781 -4.597656 4.9375 -4.953125 4.9375 -5.390625 C 4.9375 -5.847656 4.800781 -6.203125 4.53125 -6.453125 C 4.269531 -6.703125 3.863281 -6.828125 3.3125 -6.828125 L 1.84375 -6.828125 Z M 1.84375 -3.921875 "/></g></g></g><g fill="#000000" fill-opacity="1"><g transform="translate(255.291949, 175.034369)"><g><path d="M 1.84375 -6.828125 L 1.84375 -4.28125 L 4.625 -4.28125 L 4.625 -3.453125 L 1.84375 -3.453125 L 1.84375 -0.828125 L 4.953125 -0.828125 L 4.953125 0 L 0.84375 0 L 0.84375 -7.65625 L 4.953125 -7.65625 L 4.953125 -6.828125 Z M 1.84375 -6.828125 "/></g></g></g></svg>