<?xml version="1.0" encoding="UTF-8"?>
<svg id="Layer_2" data-name="Layer 2" xmlns="http://www.w3.org/2000/svg" xmlns:xlink="http://www.w3.org/1999/xlink" viewBox="0 0 430.78 134.65">
  <defs>
    <style>
      .cls-1 {
        fill: #d8423f;
      }

      .cls-1, .cls-2, .cls-3 {
        stroke-width: 0px;
      }

      .cls-4 {
        clip-path: url(#clippath-2);
      }

      .cls-3 {
        fill: none;
      }

      .cls-5 {
        clip-path: url(#clippath-1);
      }

      .cls-6 {
        clip-path: url(#clippath);
      }
    </style>
    <clipPath id="clippath">
      <rect class="cls-3" x="177.93" y="44.04" width="77.07" height="62.67"/>
    </clipPath>
    <clipPath id="clippath-1">
      <rect class="cls-3" y="40.04" width="8.6" height="14.67"/>
    </clipPath>
    <clipPath id="clippath-2">
      <rect class="cls-3" x="13.93" width="13.33" height="10.7"/>
    </clipPath>
  </defs>
  <g id="Layer_1-2" data-name="Layer 1">
    <path class="cls-2" d="M37.54,71.58c0-3.31.51-6.54,1.57-9.71,1.06-3.18,2.64-6.06,4.69-8.63,2.07-2.57,4.64-4.64,7.67-6.18,3.06-1.55,6.53-2.31,10.46-2.31h27.32s.03,63.78.03,63.78c.01,5.97-1.24,10.89-3.74,14.76-2.47,3.84-5.83,6.71-10.03,8.57-4.21,1.88-8.88,2.81-14.01,2.8-5.03,0-9.34-.74-12.98-2.17-3.61-1.46-6.93-3.72-10.01-6.79v-17.16h.27c3.13,4.14,6.12,7.53,9.02,10.15,2.9,2.63,5.96,4.58,9.13,5.82,3.19,1.24,6.79,1.9,10.74,1.86,5.45.01,9.72-1.68,12.82-5.03,3.09-3.34,4.66-8.13,4.65-14.36l-.02-9.94c-1.94,2.49-4.48,4.58-7.59,6.26-3.11,1.68-6.51,2.54-10.22,2.55-4.45,0-8.52-.92-12.17-2.79-3.66-1.88-6.82-4.42-9.46-7.62-2.64-3.23-4.64-6.89-6.08-10.99-1.38-4.07-2.08-8.36-2.08-12.87h0ZM50.13,62.17c0,4.98.72,9.68,2.18,14.13,1.46,4.44,3.36,8.36,5.73,11.85,2.38,3.46,4.99,6.16,7.81,8.14,2.83,1.95,5.69,2.93,8.53,2.92,2.73-.01,4.87-.67,6.47-2.05,1.59-1.38,2.73-3.11,3.42-5.19.69-2.11,1.04-4.27,1.03-6.51,0-2.79-.25-5.84-.72-9.16-.47-3.31-1.26-6.63-2.35-9.95-1.1-3.32-2.54-6.38-4.32-9.16-1.78-2.78-3.95-5.01-6.57-6.66-2.62-1.67-5.69-2.49-9.23-2.48-3.44,0-6.28,1.31-8.57,3.91-2.26,2.62-3.4,6.03-3.4,10.22Z"/>
    <path class="cls-2" d="M97.71,17.3h18.46v.26c-3.38,3.49-6.15,7.4-8.28,11.72-2.14,4.3-3.7,8.83-4.71,13.56-1.02,4.74-1.51,9.48-1.51,14.22s.29,9.3.89,14.4c.6,5.13,1.79,10.53,3.59,16.25,1.83,5.71,4.45,11.72,7.94,18.05v.26h-16.41l.03-88.73Z"/>
    <path class="cls-2" d="M116.34,80.97c0-5.93.94-11.17,2.84-15.69,1.9-4.49,4.38-8.28,7.45-11.34,3.07-3.06,6.41-5.36,10.06-6.9,3.65-1.54,7.21-2.3,10.73-2.3,4.24,0,8.02.92,11.25,2.74,3.26,1.8,5.81,4.58,7.68,8.29s2.79,8.39,2.79,14.01-.97,10.51-2.84,14.95c-1.9,4.47-4.4,8.28-7.5,11.45-3.1,3.19-6.46,5.62-10.08,7.29-3.59,1.7-7.13,2.54-10.65,2.54-4.24,0-8.05-1.02-11.3-3.06-3.26-2.04-5.83-4.94-7.68-8.7-1.82-3.76-2.73-8.18-2.73-13.28h0ZM129.68,81.15c0,6.65.91,11.92,2.73,15.84,1.82,3.92,4.38,5.86,7.63,5.86,4.92,0,8.8-2.72,11.64-8.18,2.84-5.46,4.24-13.57,4.24-24.34,0-7.53-.91-13.17-2.73-16.91-1.79-3.74-4.35-5.63-7.68-5.63s-6.07,1.33-8.41,4.03c-2.38,2.67-4.19,6.48-5.49,11.45-1.31,4.99-1.93,10.92-1.93,17.88h0Z"/>
    <g class="cls-6">
      <path class="cls-2" d="M190.1,105.98c-2.73,0-4.87-.66-6.43-1.98s-2.73-3.15-3.46-5.45-1.17-4.93-1.35-7.81c-.18-2.89-.23-5.93-.21-9.11.05-3.18.1-6.32.1-9.4v-27.41h15.96v.27c-2.6,2.89-4.69,5.91-6.28,9.06-1.61,3.15-2.81,6.22-3.65,9.21-.83,2.96-1.38,5.64-1.67,8.03-.26,2.35-.39,4.23-.39,5.61,0,5.01.99,8.66,2.97,10.96,2.01,2.3,4.35,3.47,7.06,3.47,2.19,0,4.48-.67,6.82-2.02,2.37-1.35,4.56-3.31,6.59-5.88,2.01-2.57,3.65-5.64,4.87-9.27,1.25-3.6,1.85-7.7,1.85-12.29v-17.21h15.96v.26c-2.6,2.89-4.72,5.91-6.3,9.06-1.59,3.15-2.79,6.22-3.63,9.21-.83,2.97-1.38,5.64-1.66,8.03-.26,2.36-.39,4.24-.39,5.61,0,3.45.57,6.25,1.74,8.45,1.15,2.17,2.65,3.82,4.53,4.9,1.88,1.09,3.91,1.62,6.09,1.62s4.51-.51,6.79-1.57c2.32-1.06,4.43-2.62,6.33-4.69,1.93-2.06,3.49-4.58,4.69-7.55,1.2-2.94,1.78-6.33,1.78-10.09,0-3.49-.6-6.65-1.78-9.46-1.2-2.83-2.58-5.27-4.14-7.28s-2.94-3.55-4.14-4.63c-1.17-1.09-1.77-1.65-1.77-1.65v-.27h13.49s.39.59,1.19,1.72c.78,1.14,1.57,3.05,2.35,5.7.78,2.65,1.17,6.19,1.17,10.64,0,3.36-.63,6.99-1.88,10.91s-2.92,7.76-5,11.55c-2.1,3.79-4.51,7.26-7.21,10.41-2.68,3.12-5.49,5.61-8.39,7.47-2.89,1.85-5.73,2.78-8.49,2.78-2.6,0-4.69-.71-6.22-2.17-1.54-1.43-2.68-3.39-3.41-5.88-.73-2.46-1.22-5.24-1.43-8.31-.21-3.07-.29-6.25-.29-9.56-1.3,3.02-2.65,6.04-4.09,9.06-1.43,3.04-3.02,5.85-4.79,8.42-1.78,2.55-3.78,4.61-6.07,6.15-2.29,1.61-4.9,2.38-7.84,2.38v.02Z"/>
    </g>
    <path class="cls-1" d="M67.56,14.85c-2.92.03-6.22-1.38-7.45-4.09-1.07-2.34.81-4.74,4.04-4.74,3.02,0,6.35,1.74,7.48,4.58.91,2.34-.97,4.22-4.07,4.25Z"/>
    <g class="cls-5">
      <path class="cls-1" d="M7.28,42.56c1.82,2.34,1.51,5.94.13,8.49-1.46,2.71-4.01,3.52-5.66,1.59-1.98-2.32-1.98-6.09-.57-8.75,1.51-2.81,4.53-3.36,6.1-1.33Z"/>
    </g>
    <path class="cls-1" d="M62.09,37.64c-3.49.94-6.83,2.14-10.11,3.59l-1.38.63h.02c-1.99.93-3.97,1.94-5.93,3.05-5.31,3.41-10.05,7.21-14.35,11.72-2.14,2.24-2.99,2.3-4.82-.18-.26-1.78.26-3.15,1.35-4.35,9.27-9.54,19.92-15.92,32.71-19.59,1.69-.42,3.41-.29,4.48,1.3,1.28,1.95.47,3.15-1.98,3.83Z"/>
    <g class="cls-4">
      <path class="cls-1" d="M26.34,2.19c1.35,2.24-.08,5.44-2.97,7.19-2.89,1.74-6.38,1.48-7.73-.76-1.64-2.71.18-6.09,2.71-7.6,2.53-1.51,6.38-1.51,8,1.17h0Z"/>
    </g>
    <path class="cls-1" d="M63.34,18.08c-.6,2.66-1.12,5.42-1.59,8.46-16.72,3.52-30.57,11.88-41.46,25.05-1.81-.84-3.7-1.71-5.68-2.2-.07,0-.14-.01-.21-.02-.18-.02-.35-.06-.5-.14-.6-.13-1.21-.21-1.84-.24.19-1.41.79-2.03,1.41-2.27,7.97-3.33,12.92-13.02,13.18-21.41.11-2.86.03-5.63-.13-8.39-.02-.63-.34-1.25.24-2.14,1.69.96,3.33,1.98,5.03,2.94,3.65,2.14,7.68,3.52,11.82,4.24,6.04.65,11.95.13,16.98-3.54.63-.47,1.3-1.04,2.76-.36Z"/>
    <path class="cls-1" d="M298.52,42.1h11.63l-25.92,25.15,26.6,37.08h-10.92l-21.75-31.21-9.79,9.38v21.83h-8.42v-62.23h8.42v30.17l30.15-30.17Z"/>
    <path class="cls-1" d="M342.21,49.56v54.77h-8.42v-54.77h-21.06v-7.46h50.54v7.46h-21.06Z"/>
    <path class="cls-1" d="M401.13,94.71l17.69-52.6h11.96v62.23h-8.15v-37.08l.08-11.63c.05-.75.08-1.93.08-3.54h-.17l-17.52,52.25h-8.31l-17.5-52.17h-.19c.13,6.35.19,11.38.19,15.08v37.08h-8.15v-62.23h12.04l17.77,52.6h.17Z"/>
  </g>
</svg>